<?xml version="1.0" encoding="utf-8"?>
<svg xmlns="http://www.w3.org/2000/svg" viewBox="0 0 256 256">
  <defs>
    <style>
      .s {fill: #f00;}
      .hat {fill: #000;}
      .sunglasses {fill: #000;}
    </style>
  </defs>
  <g transform="translate(128 128) scale(0.8) translate(-128 -128)">
    <g id="logo_s">
      <path class="s" d="M 180.78 167.08 C 174.29 161.97 164.6 157.84 151.98 154.82 L 123.54 147.99 C 112.76 145.43 105.67 143.18 102.44 141.31 C 97.69 138.67 95.39 134.78 95.39 129.43 C 95.39 123.5 97.77 119 102.67 115.69 C 107.69 112.3 114.55 110.58 123.08 110.58 C 130.78 110.58 137.29 111.92 142.42 114.55 C 150.04 118.5 154.02 125.01 154.58 134.44 L 154.67 135.87 L 190.82 135.87 L 190.77 134.29 C 190.16 116.35 193.123 87.401 180.513 77.931 C 168.023 68.551 82.28 68.616 71.29 78.606 C 60.26 88.636 60.44 116.72 60.44 131.88 C 60.44 148.53 66.27 160.97 77.78 168.84 C 84.48 173.48 96.63 177.82 113.91 181.72 L 131.38 185.64 C 141.39 187.83 148.8 190.37 153.4 193.17 C 157.74 195.88 159.85 199.6 159.85 204.53 C 159.85 213.22 155.46 219.01 146.43 222.23 C 141.54 223.95 135.05 224.83 127.12 224.83 C 114.08 224.83 104.8 221.59 99.53 215.2 C 96.66 211.71 94.71 206.28 93.71 199.05 L 93.53 197.73 L 57.76 197.73 L 57.76 199.26 C 57.76 216.83 64.17 230.85 76.8 240.92 C 89.33 250.91 106.71 255.97 128.46 255.97 C 150.21 255.97 166.56 250.82 178.32 240.65 C 190.15 230.43 196.14 217.41 196.14 201.94 C 196.14 186.47 190.97 175.08 180.78 167.05 L 180.78 167.08 Z"/>
    </g>
    <g id="logo_sunglasses">
      <path class="sunglasses" d="M205.32,103.68c-.91-.54-5.42-.82-6.9-.95-4.18-.37-8.65-.31-12.86-.44-12.41-.4-24.89-.54-37.13,1.88-6.46,1.28-12.65,3.83-19.3,4.24-1.01.06-2.38.09-3.36.09-.99,0-2.35-.03-3.36-.09-6.65-.41-12.83-2.97-19.3-4.24-12.24-2.42-24.73-2.28-37.13-1.88-4.2.13-8.67.07-12.86.44-1.47.13-5.98.41-6.9.95-2.43,1.43-2.07,10.96-1.55,13.59.79,4,1.71,2.57,4.73,4.53,1.49,10.59,3.16,25.79,14.39,30.62,7.03,3.02,25.17,2.88,32.6,1,5.12-1.3,12.78-5.3,15.79-9.71,1.32-1.95,2.8-5.66,3.61-7.95.98-2.79,2.95-12.91,4.02-14.28.78-1,3.42-1.35,5.96-1.34,2.97-.01,5.17.35,5.96,1.34,1.08,1.38,3.04,11.49,4.02,14.28.81,2.29,2.28,6,3.61,7.95,3.01,4.42,10.67,8.41,15.79,9.71,7.43,1.89,25.57,2.03,32.6-1,11.23-4.82,12.9-20.03,14.39-30.62,3.02-1.97,3.94-.53,4.73-4.53.52-2.63.88-12.17-1.55-13.59Z"/>
    </g>
    <g id="logo_hat">
      <path class="hat" d="M230.34,75.37c-9.85-3.94-20.35-6.04-30.53-8.93-5.78-15.33-9.77-31.37-15.35-46.77-4.8-13.26-10.89-22.42-26.79-18.92-10.24,2.26-18.81,7.95-29.68,7.9-10.86.06-19.44-5.64-29.68-7.9-15.89-3.5-21.99,5.66-26.79,18.92-5.57,15.4-9.56,31.44-15.35,46.77-10.17,2.89-20.68,4.99-30.53,8.93-3.78,1.51-15.91,6.46-8.83,11.67,3.99,2.94,17.85,4.51,23.16,5.17,9.77,1.22,20.09,2.04,29.81,2.67,19.22,1.25,38.71,1.87,58.2,1.86,19.49,0,38.98-.61,58.2-1.86,9.71-.63,20.04-1.45,29.81-2.67,5.31-.66,19.17-2.24,23.16-5.17,7.08-5.21-5.05-10.15-8.83-11.67Z"/>
    </g>
  </g>
</svg>