<?xml version="1.0" encoding="utf-8"?>
<svg xmlns="http://www.w3.org/2000/svg" viewBox="0 0 256 256">
  <defs>
    <style>
      .gear {fill: #fff;}
      .font {fill: #0f0;}
    </style>
  </defs>
  <g transform="translate(128 128) scale(0.8) translate(-128 -128)">
    <g id="icon_gear">
      <path class="gear" d="M249.69,105.58l-19.1-3.79c-2.52-9.9-6.44-19.23-11.53-27.79l10.83-16.2c2.08-3.11,1.67-7.25-.97-9.9l-20.83-20.83c-2.64-2.64-6.79-3.05-9.9-.97l-16.2,10.83c-8.56-5.09-17.9-9.01-27.79-11.53l-3.79-19.1c-.73-3.67-3.95-6.31-7.69-6.31h-29.46c-3.74,0-6.96,2.64-7.69,6.31l-3.79,19.1c-9.9,2.52-19.23,6.44-27.79,11.53l-16.2-10.83c-3.11-2.08-7.25-1.67-9.9.97l-20.83,20.83c-2.64,2.64-3.05,6.79-.97,9.9l10.83,16.2c-5.09,8.56-9.01,17.9-11.53,27.79l-19.1,3.79c-3.67.73-6.31,3.95-6.31,7.69v29.46c0,3.74,2.64,6.96,6.31,7.69l19.1,3.79c2.52,9.9,6.44,19.23,11.53,27.79l-10.83,16.2c-2.08,3.11-1.67,7.25.97,9.9l20.83,20.83c2.64,2.64,6.79,3.05,9.9.97l16.2-10.83c8.56,5.09,17.9,9.01,27.79,11.53l3.79,19.1c.73,3.67,3.95,6.31,7.69,6.31h29.46c3.74,0,6.96-2.64,7.69-6.31l3.79-19.1c9.9-2.52,19.23-6.44,27.79-11.53l16.2,10.83c3.11,2.08,7.25,1.67,9.9-.97l20.83-20.83c2.64-2.64,3.05-6.79.97-9.9l-10.83-16.2c5.09-8.56,9.01-17.9,11.53-27.79l19.1-3.79c3.67-.73,6.31-3.95,6.31-7.69v-29.46c0-3.74-2.64-6.96-6.31-7.69ZM128,210.94c-45.81,0-82.94-37.13-82.94-82.94S82.19,45.06,128,45.06s82.94,37.13,82.94,82.94-37.13,82.94-82.94,82.94Z"/>
    </g>
    <g id="icon_type" transform="matrix(0.974586, 0, 0, 1.153215, 3.648737, -19.069523)">
      <g>
        <path class="font" d="M92.36,152.27c3.42,0,6.19-.38,8.33-1.13,4.05-1.44,6.07-4.12,6.07-8.04,0-2.29-1-4.06-3.01-5.32-2.01-1.22-5.16-2.31-9.46-3.25l-7.34-1.65c-7.21-1.63-12.2-3.4-14.96-5.32-4.67-3.2-7.01-8.2-7.01-15.01,0-6.21,2.26-11.37,6.77-15.48,4.52-4.11,11.15-6.16,19.9-6.16,7.31,0,13.54,1.94,18.7,5.81,5.16,3.87,7.86,9.49,8.11,16.86h-13.92c-.25-4.17-2.07-7.13-5.46-8.89-2.26-1.16-5.07-1.74-8.42-1.74-3.73,0-6.71.75-8.94,2.26-2.23,1.51-3.34,3.61-3.34,6.3,0,2.48,1.1,4.33,3.29,5.55,1.41.82,4.42,1.77,9.03,2.87l11.95,2.87c5.24,1.25,9.19,2.93,11.85,5.03,4.14,3.26,6.21,7.98,6.21,14.16s-2.42,11.6-7.27,15.78c-4.85,4.19-11.69,6.28-20.53,6.28s-16.14-2.06-21.31-6.19c-5.17-4.12-7.76-9.79-7.76-17.01h13.83c.44,3.17,1.3,5.54,2.59,7.1,2.35,2.85,6.38,4.28,12.09,4.28Z"/>
        <path class="font" d="M160.19,164.22c-9.91,0-17.48-2.7-22.72-8.09-7.03-6.62-10.54-16.15-10.54-28.6s3.51-22.23,10.54-28.6c5.24-5.39,12.81-8.09,22.72-8.09s17.48,2.7,22.72,8.09c6.99,6.37,10.49,15.9,10.49,28.6s-3.5,21.98-10.49,28.6c-5.24,5.39-12.81,8.09-22.72,8.09ZM173.88,145.59c3.36-4.23,5.03-10.25,5.03-18.06s-1.69-13.79-5.06-18.04c-3.37-4.25-7.93-6.37-13.67-6.37s-10.32,2.12-13.74,6.35c-3.42,4.23-5.13,10.25-5.13,18.06s1.71,13.83,5.13,18.06c3.42,4.23,8,6.35,13.74,6.35s10.3-2.12,13.69-6.35Z"/>
      </g>
    </g>
  </g>
</svg>